<svg width="45" height="45" viewBox="0 0 45 45" fill="none" xmlns="http://www.w3.org/2000/svg">
<path d="M8.79181 0.59985C7.69498 0.814075 6.58958 1.67097 6.12686 2.66497C5.8098 3.34192 5.69841 3.91605 5.69841 4.88434V5.64698H4.93577C4.52446 5.64698 3.97604 5.68982 3.71897 5.73267C2.17656 6.02401 0.934054 7.26652 0.642709 8.80893C0.522743 9.44304 0.522743 40.5827 0.642709 41.2168C0.934054 42.7592 2.17656 44.0017 3.71897 44.2931C4.35308 44.413 40.6341 44.413 41.2682 44.2931C42.8107 44.0017 44.0532 42.7592 44.3445 41.2168C44.4645 40.5827 44.4645 9.44304 44.3445 8.80893C44.0532 7.26652 42.8107 6.02401 41.2682 5.73267C41.0112 5.68982 40.4628 5.64698 40.0515 5.64698H39.2888V4.88434C39.2888 3.42761 38.9461 2.46789 38.1406 1.65384C36.6496 0.16283 34.216 0.16283 32.725 1.65384C31.9195 2.46789 31.5767 3.42761 31.5767 4.88434V5.64698H29.006H26.4353V4.88434C26.4353 3.42761 26.0926 2.46789 25.2871 1.65384C23.7961 0.16283 21.3625 0.16283 19.8715 1.65384C19.066 2.46789 18.7233 3.42761 18.7233 4.88434V5.64698H16.0669H13.4105V4.88434C13.4105 4.47303 13.3676 3.92461 13.3248 3.66755C12.9221 1.57671 10.8826 0.188538 8.79181 0.59985ZM10.1543 3.24767C10.3771 3.35906 10.557 3.53901 10.6684 3.7618C10.8312 4.07886 10.8398 4.2588 10.8398 6.93233C10.8398 9.60585 10.8312 9.7858 10.6684 10.1028C10.4713 10.4885 9.9829 10.7884 9.55445 10.7884C9.126 10.7884 8.63757 10.4885 8.44048 10.1028C8.27767 9.7858 8.2691 9.60585 8.2691 6.93233C8.2691 4.2588 8.27767 4.07886 8.44048 3.7618C8.75753 3.13627 9.50303 2.91348 10.1543 3.24767ZM23.1791 3.24767C23.4019 3.35906 23.5819 3.53901 23.6933 3.7618C23.8561 4.07886 23.8646 4.2588 23.8646 6.93233C23.8646 9.60585 23.8561 9.7858 23.6933 10.1028C23.4962 10.4885 23.0077 10.7884 22.5793 10.7884C22.1509 10.7884 21.6624 10.4885 21.4653 10.1028C21.3025 9.7858 21.294 9.60585 21.294 6.93233C21.294 4.2588 21.3025 4.07886 21.4653 3.7618C21.7824 3.13627 22.5279 2.91348 23.1791 3.24767ZM36.0326 3.24767C36.2554 3.35906 36.4353 3.53901 36.5467 3.7618C36.7095 4.07886 36.7181 4.2588 36.7181 6.93233C36.7181 9.60585 36.7095 9.7858 36.5467 10.1028C36.3497 10.4885 35.8612 10.7884 35.4328 10.7884C35.0043 10.7884 34.5159 10.4885 34.3188 10.1028C34.156 9.7858 34.1474 9.60585 34.1474 6.93233C34.1474 4.2588 34.156 4.07886 34.3188 3.7618C34.6359 3.13627 35.3814 2.91348 36.0326 3.24767ZM5.69841 8.98031C5.69841 10.437 6.04117 11.3968 6.84665 12.2108C8.33765 13.7018 10.7712 13.7018 12.2622 12.2108C13.0677 11.3968 13.4105 10.437 13.4105 8.98031V8.21767H16.0669H18.7233V8.98031C18.7233 10.437 19.066 11.3968 19.8715 12.2108C21.3625 13.7018 23.7961 13.7018 25.2871 12.2108C26.0926 11.3968 26.4353 10.437 26.4353 8.98031V8.21767H29.006H31.5767V8.98031C31.5767 10.437 31.9195 11.3968 32.725 12.2108C34.216 13.7018 36.6496 13.7018 38.1406 12.2108C38.9461 11.3968 39.2888 10.437 39.2888 8.98031V8.21767H40.06C41.0197 8.21767 41.4225 8.38905 41.6881 8.90319C41.8509 9.22025 41.8595 9.40019 41.8595 12.6735V16.1011H22.4936H3.12771V12.6735C3.12771 9.40019 3.13628 9.22025 3.29909 8.90319C3.56473 8.38905 3.94177 8.22624 4.91006 8.21767H5.69841V8.98031ZM41.8595 29.7258C41.8595 40.6427 41.8595 40.7884 41.6881 41.1226C41.5767 41.3454 41.3968 41.5253 41.174 41.6367C40.8398 41.8081 40.7113 41.8081 22.4936 41.8081C4.27596 41.8081 4.14742 41.8081 3.81323 41.6367C3.59044 41.5253 3.41049 41.3454 3.29909 41.1226C3.12771 40.7884 3.12771 40.6427 3.12771 29.7258V18.6718H22.4936H41.8595V29.7258Z" fill="#0097A7"/>
<path d="M6.36662 21.4224C6.16954 21.5252 5.97245 21.7223 5.86962 21.928C5.69824 22.2536 5.69824 22.4164 5.69824 30.2399C5.69824 38.0634 5.69824 38.2262 5.86962 38.5518C5.98102 38.7746 6.16097 38.9545 6.38376 39.0659C6.71795 39.2373 6.85505 39.2373 22.4934 39.2373C38.1318 39.2373 38.2689 39.2373 38.6031 39.0659C38.8259 38.9545 39.0059 38.7746 39.1173 38.5518C39.2886 38.2262 39.2886 38.0634 39.2886 30.2399C39.2886 22.4164 39.2886 22.2536 39.1173 21.928C39.0059 21.7052 38.8259 21.5252 38.6031 21.4138C38.2689 21.2424 38.1404 21.2424 22.4763 21.2424C6.92361 21.251 6.67511 21.251 6.36662 21.4224ZM13.4103 26.3838V28.9545H10.8396H8.26894V26.3838V23.8131H10.8396H13.4103V26.3838ZM21.2938 26.3838V28.9545H18.6374H15.981V26.3838V23.8131H18.6374H21.2938V26.3838ZM29.0059 26.3838V28.9545H26.4352H23.8645V26.3838V23.8131H26.4352H29.0059V26.3838ZM36.718 26.3838V28.9545H34.1473H31.5766V26.3838V23.8131H34.1473H36.718V26.3838ZM13.4103 34.0959V36.6666H10.8396H8.26894V34.0959V31.5252H10.8396H13.4103V34.0959ZM21.2938 34.0959V36.6666H18.6374H15.981V34.0959V31.5252H18.6374H21.2938V34.0959ZM29.0059 34.0959V36.6666H26.4352H23.8645V34.0959V31.5252H26.4352H29.0059V34.0959ZM36.718 34.0959V36.6666H34.1473H31.5766V34.0959V31.5252H34.1473H36.718V34.0959Z" fill="#0097A7"/>
</svg>
