<svg width="29" height="29" viewBox="0 0 29 29" fill="none" xmlns="http://www.w3.org/2000/svg">
<path d="M8.14247 29C3.68782 29.0046 0.416514 25.7505 0.0421323 21.5009C-0.187939 18.8897 0.523716 16.614 2.19029 14.754C5.88381 10.633 9.60454 6.54198 13.3154 2.44097C13.7829 1.92402 14.3783 1.8994 14.7923 2.3653C15.1964 2.82026 15.1625 3.48856 14.6991 4.00096C10.9743 8.12021 7.24527 12.2331 3.52372 16.356C0.616899 19.5762 1.69964 25.0339 5.56715 26.5456C7.74088 27.3953 9.74638 26.9303 11.3816 25.1442C16.2403 19.8343 21.057 14.4769 25.8836 9.13042C26.8987 8.00624 27.2335 6.63589 26.8261 5.11693C26.427 3.62532 25.4919 2.68076 24.1114 2.34798C22.8547 2.04528 21.7299 2.4118 20.822 3.41107C16.9495 7.67254 13.0911 11.9486 9.23181 16.2247C8.54901 16.9814 8.54571 18.0965 9.19717 18.8241C9.86265 19.5671 10.8769 19.5489 11.5935 18.7593C14.027 16.0761 16.4556 13.3882 18.8833 10.6986C19.1018 10.457 19.3352 10.2737 19.6593 10.2692C20.0559 10.2637 20.3577 10.4488 20.549 10.8281C20.7469 11.221 20.7181 11.6149 20.4888 11.986C20.4369 12.0699 20.3717 12.1446 20.3066 12.2167C17.855 14.9282 15.4099 17.647 12.9492 20.3476C11.0081 22.4774 7.78128 21.6577 6.93439 18.8122C6.48991 17.3188 6.74143 15.9174 7.74417 14.7987C11.6628 10.4287 15.5864 6.0615 19.5619 1.75443C21.1774 0.00297683 23.1829 -0.429189 25.3071 0.422378C27.4297 1.27394 28.665 3.0254 28.9512 5.51172C29.1837 7.52575 28.5784 9.25259 27.2863 10.6831C24.3052 13.9836 21.3201 17.2786 18.3357 20.5755C16.5529 22.5458 14.7692 24.5151 12.9863 26.4863C11.488 28.143 9.67958 28.979 8.14165 29H8.14247Z" fill="#BDBDBD"/>
</svg>
