<svg width="45" height="45" viewBox="0 0 45 45" fill="none" xmlns="http://www.w3.org/2000/svg">
<path d="M7.48125 0.664059C6.38442 0.878284 5.27902 1.73518 4.8163 2.72918C4.49925 3.40613 4.38785 3.98026 4.38785 4.93998V5.68548L3.8223 5.77974C2.14278 6.05395 0.874567 7.32215 0.60036 9.00168C0.26617 11.0411 1.7229 13.0034 3.8223 13.3547L4.38785 13.449V16.0797V18.7103L3.8223 18.8046C2.14278 19.0788 0.874567 20.347 0.60036 22.0265C0.26617 24.0659 1.7229 26.0282 3.8223 26.3796L4.38785 26.4738V29.0188V31.5638L3.8223 31.6581C1.7229 32.0094 0.26617 33.9717 0.60036 36.0111C0.874567 37.6906 2.14278 38.9588 3.8223 39.233L4.38785 39.3273V40.0728C4.38785 40.4841 4.43069 41.024 4.47354 41.281C4.76488 42.8234 6.00739 44.0659 7.5498 44.3573C8.18391 44.4773 35.4675 44.4773 36.1016 44.3573C37.6441 44.0659 38.8866 42.8234 39.1779 41.281C39.2208 41.024 39.2636 40.4755 39.2636 40.0642V39.3016H40.0262C40.4376 39.3016 40.986 39.2587 41.243 39.2159C42.7855 38.9246 44.028 37.6821 44.3193 36.1396C44.4393 35.5055 44.4393 9.50725 44.3193 8.87314C44.028 7.33073 42.7855 6.08822 41.243 5.79688C40.986 5.75403 40.4376 5.71119 40.0262 5.71119H39.2636V4.94855C39.2636 4.53724 39.2208 3.98882 39.1779 3.73175C38.8866 2.18934 37.6441 0.946835 36.1016 0.655491C35.5275 0.552662 8.03824 0.552662 7.48125 0.664059ZM36.0074 3.31187C36.2302 3.42327 36.4101 3.60322 36.5215 3.82601C36.6929 4.1602 36.6929 4.28874 36.6929 22.5064C36.6929 40.724 36.6929 40.8526 36.5215 41.1868C36.4101 41.4096 36.2302 41.5895 36.0074 41.7009C35.6732 41.8723 35.5361 41.8723 21.8257 41.8723C8.11536 41.8723 7.97825 41.8723 7.64406 41.7009C7.12992 41.4353 6.95854 41.0325 6.95854 40.0728V39.3016H8.36386C9.13507 39.3016 9.96626 39.2587 10.2233 39.2159C12.237 38.8303 13.6423 36.8594 13.3167 34.88C13.0511 33.2519 11.8172 31.9751 10.2233 31.6752C9.96626 31.6324 9.13507 31.5895 8.36386 31.5895H6.95854V29.0188V26.4481H8.36386C9.13507 26.4481 9.96626 26.4053 10.2233 26.3624C12.237 25.9768 13.6423 24.006 13.3167 22.0265C13.0511 20.3984 11.8172 19.1216 10.2233 18.8217C9.96626 18.7789 9.13507 18.736 8.36386 18.736H6.95854V16.0797V13.4233H8.36386C9.13507 13.4233 9.96626 13.3804 10.2233 13.3376C12.237 12.952 13.6423 10.9811 13.3167 9.00168C13.0511 7.37357 11.8172 6.09679 10.2233 5.79688C9.96626 5.75403 9.13507 5.71119 8.36386 5.71119H6.95854V4.93998C6.95854 3.99739 7.12992 3.57751 7.62692 3.32044C7.93541 3.14906 8.17534 3.14906 21.8086 3.1405C35.5361 3.1405 35.6732 3.1405 36.0074 3.31187ZM10.1291 8.45326C10.5147 8.65035 10.8146 9.13878 10.8146 9.56723C10.8146 9.99568 10.5147 10.4841 10.1291 10.6812C9.81201 10.844 9.63207 10.8526 6.95854 10.8526C4.28502 10.8526 4.10507 10.844 3.78802 10.6812C3.40242 10.4841 3.1025 9.99568 3.1025 9.56723C3.1025 9.15592 3.40242 8.65035 3.77088 8.46183C4.0708 8.29902 4.26788 8.29045 6.94141 8.28188C9.63207 8.28188 9.81201 8.29045 10.1291 8.45326ZM41.1488 8.45326C41.3716 8.56466 41.5515 8.74461 41.6629 8.9674C41.8172 9.27588 41.8343 9.4644 41.8343 11.3667V13.4233H40.549H39.2636V10.8526V8.28188H40.0348C40.6432 8.28188 40.8831 8.31616 41.1488 8.45326ZM41.8343 18.6503V21.3067H40.549H39.2636V18.6503V15.994H40.549H41.8343V18.6503ZM10.1291 21.4781C10.5147 21.6752 10.8146 22.1636 10.8146 22.5921C10.8146 23.0205 10.5147 23.509 10.1291 23.706C9.81201 23.8689 9.63207 23.8774 6.95854 23.8774C4.28502 23.8774 4.10507 23.8689 3.78802 23.706C3.40242 23.509 3.1025 23.0205 3.1025 22.5921C3.1025 22.1808 3.40242 21.6752 3.77088 21.4867C4.0708 21.3239 4.26788 21.3153 6.94141 21.3067C9.63207 21.3067 9.81201 21.3153 10.1291 21.4781ZM41.8343 26.4481V29.0188H40.549H39.2636V26.4481V23.8774H40.549H41.8343V26.4481ZM41.8343 33.6461C41.8343 35.5484 41.8172 35.7369 41.6629 36.0454C41.3973 36.5595 40.9945 36.7309 40.0348 36.7309H39.2636V34.1602V31.5895H40.549H41.8343V33.6461ZM10.1291 34.3316C10.5147 34.5287 10.8146 35.0171 10.8146 35.4456C10.8146 35.874 10.5147 36.3624 10.1291 36.5595C9.81201 36.7223 9.63207 36.7309 6.95854 36.7309C4.28502 36.7309 4.10507 36.7223 3.78802 36.5595C3.40242 36.3624 3.1025 35.874 3.1025 35.4456C3.1025 35.0342 3.40242 34.5287 3.77088 34.3402C4.0708 34.1773 4.26788 34.1688 6.94141 34.1602C9.63207 34.1602 9.81201 34.1688 10.1291 34.3316Z" fill="#0097A7"/>
<path d="M26.2388 8.41042C22.3314 9.09594 19.3751 12.1294 18.7924 16.054C18.7324 16.4481 18.6981 18.7789 18.6981 22.5064C18.6981 26.2339 18.7324 28.5647 18.7924 28.9588C19.3237 32.515 21.8001 35.3599 25.2534 36.3796C26.2131 36.6624 27.4128 36.7823 28.1583 36.6709C29.8464 36.431 31.1574 35.2056 31.4659 33.5689C31.5773 32.9691 31.5773 30.2099 31.4659 29.6101C31.1488 27.9563 29.8292 26.7309 28.1411 26.5167C27.2328 26.3967 26.8044 26.1911 26.5816 25.7712C26.4188 25.4456 26.4102 25.2742 26.4102 22.5064C26.4102 19.7386 26.4188 19.5672 26.5816 19.2416C26.8044 18.8217 27.2328 18.6161 28.1411 18.4961C29.8292 18.2819 31.1488 17.0565 31.4659 15.4027C31.5087 15.1456 31.5516 14.2545 31.5516 13.4233C31.5516 12.5921 31.5087 11.7009 31.4659 11.4438C31.2431 10.2785 30.4205 9.1902 29.3922 8.71034C28.4582 8.27332 27.5242 8.18763 26.2388 8.41042ZM28.2954 11.024C28.8952 11.3324 28.9809 11.6238 28.9809 13.4233C28.9809 14.8115 28.9638 15.0085 28.8095 15.317C28.5867 15.7369 28.1583 15.9426 27.25 16.0625C25.5619 16.2767 24.2423 17.5021 23.9252 19.1559C23.8138 19.7558 23.8138 25.257 23.9252 25.8569C24.2423 27.5107 25.5619 28.736 27.25 28.9503C28.1583 29.0702 28.5867 29.2759 28.8095 29.6958C28.9638 30.0043 28.9809 30.2013 28.9809 31.5895C28.9809 33.4061 28.9038 33.6803 28.2782 33.9974C27.9612 34.1602 27.8241 34.1773 27.2243 34.1259C24.4479 33.9117 22.1257 31.9323 21.4316 29.1902C21.2517 28.4961 21.2517 16.5167 21.4316 15.8226C21.9372 13.8346 23.3854 12.1379 25.2534 11.3496C25.7075 11.1611 25.9903 11.0839 26.8815 10.904C27.3614 10.8097 27.9783 10.8612 28.2954 11.024Z" fill="#0097A7"/>
</svg>
