<svg width="60" height="61" viewBox="0 0 60 61" fill="none" xmlns="http://www.w3.org/2000/svg">
<path d="M30 0.701416C46.5688 0.701416 60 14.1327 60 30.7014C60 47.2702 46.5688 60.7014 30 60.7014C13.4313 60.7014 0 47.2702 0 30.7014C0 14.1327 13.4313 0.701416 30 0.701416ZM40.3487 42.9302C40.9 41.2377 43.4863 24.3639 43.805 21.0389C43.9012 20.0314 43.5838 19.3627 42.96 19.0639C42.2062 18.7014 41.09 18.8827 39.7938 19.3502C38.0175 19.9902 15.3062 29.6339 13.9938 30.1914C12.75 30.7202 11.5725 31.2964 11.5725 32.1314C11.5725 32.7189 11.9213 33.0489 12.8813 33.3914C13.88 33.7477 16.3962 34.5102 17.8825 34.9202C19.3137 35.3152 20.9425 34.9727 21.855 34.4052C22.8225 33.8039 33.9925 26.3302 34.7937 25.6752C35.595 25.0202 36.2337 25.8589 35.5788 26.5152C34.9238 27.1702 27.2575 34.6114 26.2463 35.6414C25.0188 36.8927 25.89 38.1889 26.7137 38.7077C27.6537 39.3002 34.4175 43.8364 35.4362 44.5639C36.455 45.2914 37.4875 45.6214 38.4338 45.6214C39.38 45.6214 39.8775 44.3764 40.3487 42.9302Z" fill="url(#paint0_linear_29_24)"/>
<defs>
<linearGradient id="paint0_linear_29_24" x1="45.6" y1="57.1014" x2="12" y2="6.70142" gradientUnits="userSpaceOnUse">
<stop stop-color="#00BCD4"/>
<stop offset="1" stop-color="#B2EBF2"/>
</linearGradient>
</defs>
</svg>
