<svg width="60" height="61" viewBox="0 0 60 61" fill="none" xmlns="http://www.w3.org/2000/svg">
<path fill-rule="evenodd" clip-rule="evenodd" d="M0 30.7014C0 14.1324 13.431 0.701416 30 0.701416C46.569 0.701416 60 14.1324 60 30.7014C60 47.2704 46.569 60.7014 30 60.7014C13.431 60.7014 0 47.2704 0 30.7014ZM46.7981 22.051C46.8071 22.241 46.7741 22.4538 46.7051 22.6833C46.2872 24.7376 42.605 30.2037 41.4909 31.8576C41.2852 32.1629 41.1671 32.3383 41.1731 32.3383C40.9571 32.7122 40.8131 32.9798 40.7996 33.261C40.7861 33.5285 40.8926 33.8082 41.1731 34.2049C41.5916 34.8129 42.5021 35.9316 43.4246 37.061C45.0896 39.1008 46.4246 41.241 46.7156 42.1165C46.7771 42.3551 46.8041 42.5695 46.7996 42.761C46.7786 43.5134 46.2551 43.901 45.3431 43.901H41.4161C40.3818 43.901 39.8388 43.1797 38.7322 41.7095C38.2469 41.0648 37.6533 40.276 36.8622 39.341C34.6122 36.681 33.4467 36.301 32.8753 36.301C32.0743 36.301 31.7998 36.5031 31.7983 37.7206V42.2381C31.7983 43.2519 31.5403 43.901 29.0233 43.901C24.8684 43.901 20.1749 41.051 16.6125 36.111C11.7 29.2983 10.8 23.3734 10.8 22.2774C10.8 21.6694 10.9905 21.101 12.135 21.101H16.0995C17.091 21.101 17.472 21.5478 17.853 22.7243C19.6124 28.701 22.2404 33.261 23.5754 33.261C24.0704 33.261 24.2999 33.0178 24.2999 31.6802V26.1732C24.2055 24.4208 23.6568 23.6568 23.2502 23.0907C22.9976 22.7391 22.7999 22.4637 22.7999 22.0753C22.7999 21.5874 23.1179 21.101 23.7284 21.101H30.7018C31.5403 21.101 31.7998 21.5874 31.7998 22.6422V30.5234C31.7998 31.4157 32.4703 31.741 32.7358 31.741C32.7475 31.741 32.7593 31.741 32.771 31.741C33.2531 31.7416 33.7175 31.7421 34.6107 30.791C37.4322 27.4242 39.8802 22.3185 39.8802 22.3185C40.1472 21.709 40.6047 21.101 41.5961 21.101H45.5231C46.4021 21.101 46.7756 21.5007 46.7981 22.051Z" fill="url(#paint0_linear_29_30)"/>
<defs>
<linearGradient id="paint0_linear_29_30" x1="44.4" y1="56.5014" x2="10.8" y2="9.10142" gradientUnits="userSpaceOnUse">
<stop stop-color="#00BCD4"/>
<stop offset="1" stop-color="#B2EBF2"/>
</linearGradient>
</defs>
</svg>
