<svg width="60" height="61" viewBox="0 0 60 61" fill="none" xmlns="http://www.w3.org/2000/svg">
<path d="M30 0.701416C13.4325 0.701416 0 14.1339 0 30.7014C0 36.3294 1.58085 41.5766 4.27734 46.0774L0.268555 60.7014L15.2051 56.7805C19.5734 59.2641 24.6162 60.7014 30 60.7014C46.5675 60.7014 60 47.2689 60 30.7014C60 14.1339 46.5675 0.701416 30 0.701416ZM19.7314 16.7073C20.2189 16.7073 20.7198 16.7043 21.1523 16.7268C21.6873 16.7393 22.2696 16.7785 22.8271 18.011C23.4896 19.476 24.9322 23.1512 25.1172 23.5237C25.3022 23.8962 25.4333 24.335 25.1758 24.8225C24.9308 25.3225 24.8034 25.6251 24.4434 26.0676C24.0709 26.4976 23.6627 27.0317 23.3252 27.3567C22.9527 27.7292 22.568 28.1376 22.998 28.8801C23.428 29.6226 24.9214 32.0567 27.1289 34.0217C29.9664 36.5567 32.3605 37.3358 33.1055 37.7083C33.8505 38.0808 34.2819 38.0227 34.7119 37.5227C35.1544 37.0352 36.5703 35.3624 37.0703 34.6174C37.5578 33.8724 38.0555 34.0013 38.7305 34.2463C39.4155 34.4913 43.0685 36.2908 43.8135 36.6633C44.5585 37.0358 45.0469 37.2202 45.2344 37.5227C45.4269 37.8352 45.4271 39.3229 44.8096 41.0579C44.1921 42.7904 41.1598 44.4658 39.7998 44.5833C38.4273 44.7108 37.1464 45.2002 30.8789 42.7327C23.3189 39.7552 18.5512 32.012 18.1787 31.512C17.8062 31.0245 15.1514 27.4862 15.1514 23.8362C15.1514 20.1737 17.0716 18.38 17.7441 17.635C18.4291 16.89 19.2314 16.7073 19.7314 16.7073Z" fill="url(#paint0_linear_29_22)"/>
<defs>
<linearGradient id="paint0_linear_29_22" x1="42.6" y1="57.7014" x2="12.6" y2="6.10141" gradientUnits="userSpaceOnUse">
<stop stop-color="#00BCD4"/>
<stop offset="1" stop-color="#B2EBF2"/>
</linearGradient>
</defs>
</svg>
