<svg width="29" height="29" viewBox="0 0 29 29" fill="none" xmlns="http://www.w3.org/2000/svg">
<path d="M17.8298 29C16.0209 28.9819 14.4856 27.9162 13.8302 26.1911C12.893 23.726 11.9631 21.2581 11.0377 18.7884C10.8414 18.2651 10.4969 17.9195 9.97601 17.72C7.58625 16.8067 5.20012 15.8815 2.81126 14.9655C1.08143 14.3034 -0.0302778 12.718 0.000628276 10.9458C0.0306253 9.23978 1.24505 7.64805 2.97579 7.0694C6.65816 5.83863 10.3423 4.61513 14.0247 3.3889C17.1926 2.33318 20.3668 1.29742 23.5256 0.215403C26.189 -0.697012 28.7269 1.4634 28.9669 3.4279C29.035 3.98841 29.0032 4.53259 28.8223 5.07043C27.9033 7.80586 26.9843 10.5413 26.0744 13.2794C24.6791 17.4796 23.292 21.6816 21.9021 25.8827C21.3603 27.5198 20.2932 28.5846 18.5724 28.9293C18.3297 28.9782 18.077 28.9782 17.8289 29H17.8298ZM24.9964 2.88281C24.8209 2.92272 24.6409 2.94811 24.471 3.00434C17.6371 5.26361 10.8041 7.5247 3.97206 9.78669C3.32848 9.99983 2.9667 10.4334 2.95488 10.9993C2.94125 11.6514 3.19122 11.9689 3.90752 12.2391C6.35364 13.1606 8.79613 14.0948 11.2459 15.0063C12.5512 15.4925 13.422 16.3758 13.9065 17.6801C14.8128 20.1198 15.7418 22.5505 16.6663 24.983C16.7335 25.1617 16.8162 25.3395 16.9244 25.4955C17.2271 25.9308 17.6553 26.1394 18.1834 26.0732C18.7297 26.0043 19.0706 25.6859 19.246 25.1553C19.8341 23.384 20.4368 21.6172 21.0358 19.8486C22.7657 14.7369 24.4955 9.62525 26.2262 4.51355C26.4835 3.75441 25.839 2.9073 24.9964 2.8819V2.88281Z" fill="#BDBDBD"/>
</svg>
