<svg width="39" height="45" viewBox="0 0 39 45" fill="none" xmlns="http://www.w3.org/2000/svg">
<path d="M6.06172 0.732662C5.86463 0.835491 5.66755 1.03258 5.56472 1.23823C5.40191 1.56385 5.39334 1.73523 5.39334 6.65383V11.7352L3.07115 14.0489C1.79437 15.3256 0.637557 16.5339 0.500454 16.7395L0.251953 17.1251V28.9675C0.251953 36.6624 0.286229 40.964 0.337643 41.2639C0.628988 42.8064 1.87149 44.0489 3.41391 44.3402C4.04801 44.4602 35.0163 44.4602 35.6504 44.3402C37.1928 44.0489 38.4353 42.8064 38.7267 41.2639C38.7781 40.964 38.8124 36.6624 38.8124 28.9846C38.8124 17.4764 38.8038 17.1594 38.6496 16.8509C38.5553 16.6795 37.3985 15.4542 36.0789 14.1345L33.671 11.7352V6.65383C33.671 1.73523 33.6624 1.56385 33.4996 1.23823C33.3882 1.01544 33.2082 0.835491 32.9855 0.724094C32.6513 0.552715 32.5142 0.552715 19.515 0.552715C6.60157 0.561283 6.3702 0.561283 6.06172 0.732662ZM31.1003 12.5664V22.018L27.6127 25.5056L24.1166 29.0017H19.5322H14.9478L11.4602 25.5142L7.96404 22.018V12.575V3.12341H19.5322H31.1003V12.5664ZM5.39334 17.4507V19.4473L4.39077 18.4447L3.37963 17.4336L4.36506 16.4482C4.90491 15.9083 5.35907 15.4627 5.36763 15.4627C5.38477 15.4627 5.39334 16.3625 5.39334 17.4507ZM34.6735 18.4362L33.671 19.4473V17.4336V15.4199L34.6735 16.431L35.6847 17.4336L34.6735 18.4362ZM7.68126 35.1457L2.82265 40.0129V30.2871V20.5613L7.68126 25.4285L12.5484 30.2871L7.68126 35.1457ZM36.2417 30.3042V40.0129L31.3831 35.1543L26.5159 30.2871L31.3573 25.4456C34.0223 22.7806 36.2074 20.6041 36.216 20.6041C36.2331 20.6041 36.2417 24.9743 36.2417 30.3042ZM29.2579 36.7138L34.3993 41.8552H19.5322H4.66498L9.80637 36.7138L14.9478 31.5724H19.5322H24.1166L29.2579 36.7138Z" fill="#0097A7"/>
<path d="M18.0754 5.82249C13.0025 6.71366 9.68632 11.5723 10.7489 16.5509C11.3658 19.49 13.5167 22.0093 16.2759 23.0633C18.2467 23.8088 20.4147 23.8602 22.4027 23.2175C23.9108 22.7291 24.3564 22.3521 24.3564 21.598C24.3564 20.8953 23.8337 20.3469 23.1653 20.3469C22.9854 20.3469 22.4541 20.484 21.9742 20.6468C20.8688 21.0239 20.0291 21.1524 19.1036 21.0838C17.5098 20.9639 16.2844 20.4155 15.1105 19.3015C13.1739 17.4592 12.5912 14.6485 13.6195 12.2064C14.3993 10.3726 16.1131 8.92446 18.0754 8.42746C18.341 8.3589 18.9751 8.30749 19.5321 8.30749C20.0891 8.30749 20.7232 8.3589 20.9888 8.42746C23.2939 9.01015 25.1448 10.8268 25.7532 13.1061C25.8217 13.3375 25.8988 13.8431 25.9245 14.2201C25.976 14.8199 25.9588 14.957 25.796 15.2741C25.3247 16.191 23.9794 16.191 23.5681 15.2655C23.4738 15.0684 23.371 14.6057 23.3196 14.2458C23.1053 12.5063 21.8371 11.1952 20.0976 10.9039C17.6212 10.4926 15.3333 12.7805 15.7446 15.2569C16.2073 18.0676 19.3264 19.43 21.7086 17.8533L22.1028 17.5877L22.4969 17.8533C24.9134 19.4557 28.0582 18.0333 28.4695 15.1541C28.7009 13.586 28.1011 11.3923 27.0042 9.72137C25.0848 6.80792 21.4601 5.23123 18.0754 5.82249ZM20.1319 13.586C20.8089 13.963 20.9888 14.7771 20.5518 15.4197C20.0205 16.191 18.8466 16.1224 18.4181 15.2912C18.2039 14.8628 18.2039 14.52 18.4181 14.0916C18.7352 13.466 19.5149 13.2347 20.1319 13.586Z" fill="#0097A7"/>
</svg>
